<svg xmlns="http://www.w3.org/2000/svg" viewBox="0 0 1024 1024" fill="rgb(119, 119, 119)">
    <path d="M1007.394 463.789c-57.47-73.686-131.912-134.636-215.274-176.256-85.096-42.486-176.642-64.53-272.207-65.686-2.632-0.072-13.2-0.072-15.832 0-95.564 1.158-187.112 23.2-272.207 65.686-83.362 41.62-157.8 102.568-215.272 176.256-22.14 28.386-22.14 68.036 0 96.422 57.47 73.686 131.91 134.636 215.272 176.256 85.096 42.486 176.642 64.53 272.207 65.686 2.632 0.072 13.2 0.072 15.832 0 95.564-1.158 187.112-23.2 272.207-65.686 83.362-41.62 157.802-102.568 215.274-176.256 22.14-28.39 22.14-68.036-0-96.422zM250.484 699.197c-77.84-38.864-147.356-95.784-201.034-164.606-10.374-13.302-10.374-31.88 0-45.182 53.676-68.822 123.192-125.742 201.034-164.606 22.108-11.036 44.684-20.58 67.678-28.66-59.156 53.176-96.426 130.24-96.426 215.856 0 85.62 37.272 162.69 96.434 215.864-22.994-8.080-45.576-17.628-67.686-28.666zM511.999 760.605c-137.084 0-248.608-111.524-248.608-248.608s111.524-248.606 248.608-248.606 248.608 111.524 248.608 248.608-111.524 248.606-248.608 248.606zM974.548 534.589c-53.676 68.822-123.192 125.742-201.034 164.606-22.082 11.024-44.644 20.526-67.61 28.598 59.116-53.174 96.358-130.214 96.358-215.796 0-85.628-37.28-162.702-96.446-215.878 23 8.082 45.586 17.638 67.7 28.68 77.84 38.864 147.356 95.784 201.034 164.606 10.372 13.304 10.372 31.882-0.002 45.184z M511.999 405.607c-58.664 0-106.39 47.726-106.39 106.39s47.726 106.39 106.39 106.39 106.39-47.726 106.39-106.39c0.002-58.664-47.724-106.39-106.39-106.39zM511.999 576.733c-35.694 0-64.736-29.038-64.736-64.736 0-35.696 29.038-64.734 64.736-64.734 35.694 0 64.734 29.038 64.734 64.734 0.002 35.698-29.040 64.736-64.734 64.736z" stroke="rgb(119, 119, 119)" stroke-width="1"/>
</svg>
