<svg xmlns="http://www.w3.org/2000/svg" xmlns:xlink="http://www.w3.org/1999/xlink" width="500" zoomAndPan="magnify" viewBox="0 0 375 374.999991" height="500" preserveAspectRatio="xMidYMid meet" version="1.0"><defs><g/><clipPath id="19ea940554"><path d="M 57 75 L 320 75 L 320 210 L 57 210 Z M 57 75 " clip-rule="nonzero"/></clipPath><clipPath id="6774b40274"><path d="M 58.292969 214.246094 L 53.003906 77.847656 L 316.804688 67.617188 L 322.09375 204.015625 Z M 58.292969 214.246094 " clip-rule="nonzero"/></clipPath><clipPath id="c268bd8af9"><path d="M 53.015625 78.09375 L 58.304688 214.492188 L 322.105469 204.261719 L 316.816406 67.863281 Z M 53.015625 78.09375 " clip-rule="nonzero"/></clipPath><clipPath id="1b18c019a5"><path d="M 53.015625 78.09375 L 58.304688 214.492188 L 322.105469 204.261719 L 316.816406 67.863281 Z M 53.015625 78.09375 " clip-rule="nonzero"/></clipPath></defs><g clip-path="url(#19ea940554)"><g clip-path="url(#6774b40274)"><g clip-path="url(#c268bd8af9)"><g clip-path="url(#1b18c019a5)"><path fill="#000000" d="M 118.851562 206.261719 C 118.789062 206.617188 118.753906 207.027344 118.664062 207.324219 C 118.449219 208.042969 117.808594 208.507812 117.0625 208.539062 C 114.1875 208.664062 106.597656 208.980469 105.527344 208.984375 C 91.539062 209 74.550781 210.054688 64.214844 198.070312 C 59.78125 192.929688 57.375 185.992188 57.835938 179.199219 C 58.398438 170.890625 63.4375 162.886719 70.546875 158.453125 C 81.582031 151.570312 113.535156 153.8125 118.5625 153.96875 C 119.863281 154.011719 120.90625 155.042969 120.953125 156.347656 C 121.011719 157.84375 120.988281 159.925781 120.617188 161.945312 C 120.054688 165.050781 119.3125 168.039062 119.03125 168.613281 C 117.089844 172.582031 113.703125 175.5625 109.402344 176.675781 C 108.097656 177.011719 106.761719 177.171875 105.421875 177.273438 C 106.234375 178.359375 106.875 179.570312 107.507812 180.777344 C 109.742188 185.023438 115.292969 191.910156 117.664062 194.773438 C 118.40625 195.671875 118.847656 196.746094 118.941406 197.90625 C 118.980469 198.386719 119.015625 198.988281 119.046875 199.585938 C 173.242188 199.84375 228.414062 199.597656 282.585938 198.050781 C 284.476562 197.898438 286.566406 197.855469 288.703125 197.800781 C 283.304688 194.953125 279.070312 190 278.304688 183.695312 C 276.609375 173.144531 285.496094 162.328125 296.386719 163.234375 C 300.332031 163.355469 303.714844 164.492188 306.585938 166.21875 C 297.769531 156.957031 284.484375 151.671875 273.234375 145.441406 C 243.007812 130.363281 211.984375 116.949219 180.808594 103.914062 C 159.742188 95.574219 138.75 87.457031 119.277344 75.523438 C 141.710938 79.949219 162.574219 88.671875 183.375 97.726562 C 204.234375 106.4375 225.015625 115.34375 245.582031 124.792969 C 255.871094 129.507812 266.089844 134.394531 276.238281 139.449219 C 292.074219 148.53125 320.230469 158.148438 319.828125 180.558594 C 319.398438 184.449219 317.933594 188.210938 315.710938 191.410156 C 313.636719 197.320312 308.667969 202.195312 300.226562 203.496094 C 240.148438 207.386719 179.039062 206.097656 118.851562 206.261719 Z M 309.769531 188.066406 C 310.722656 184.171875 310.019531 179.675781 307.761719 176.277344 C 303.273438 168.75 289.460938 167.046875 285.871094 176.304688 C 281.558594 185.609375 290.753906 194.523438 300.007812 193.738281 C 303.886719 193.59375 307.339844 191.261719 309.769531 188.066406 Z M 68.992188 169.152344 C 72.734375 167.105469 77.179688 166.597656 81.335938 166.300781 C 89.605469 165.714844 98.550781 165.863281 106.714844 167.421875 C 108.867188 167.832031 110.867188 168.382812 112.894531 167.171875 C 114.933594 165.953125 116.175781 163.515625 115.964844 161.144531 C 115.929688 160.753906 115.839844 160.335938 115.539062 160.082031 C 115.269531 159.851562 114.890625 159.8125 114.535156 159.785156 C 109.511719 159.390625 104.46875 159.46875 99.433594 159.675781 C 98.117188 159.726562 96.800781 159.78125 95.488281 159.84375 C 89.929688 160.101562 84.34375 160.507812 78.933594 161.878906 C 77.636719 162.210938 76.320312 162.589844 75.023438 163.046875 C 68.902344 165.195312 63.894531 169.398438 61.851562 176.039062 C 61.628906 176.757812 61.644531 177.179688 61.644531 177.179688 C 61.644531 177.179688 65.707031 170.945312 68.988281 169.152344 Z M 90.039062 193.324219 C 92.253906 189.460938 94.101562 185.8125 95.417969 181.554688 C 95.871094 180.09375 96.277344 178.589844 97.078125 177.285156 C 97.101562 177.246094 97.136719 177.214844 97.160156 177.175781 C 91.328125 176.824219 82.472656 176.164062 78.421875 180.613281 C 76.734375 182.464844 76.257812 185.191406 77.269531 187.488281 C 78.074219 189.320312 79.542969 190.796875 81.207031 191.90625 C 83.792969 193.625 87.167969 194.511719 90.039062 193.324219 Z M 112.089844 198.101562 C 111.679688 196.933594 110.140625 196.738281 108.90625 196.742188 C 104.34375 196.765625 99.785156 196.789062 95.222656 196.8125 C 90.804688 196.835938 86.140625 197.078125 82.160156 195.160156 C 75.046875 191.742188 73.90625 186.179688 73.90625 186.179688 C 73.90625 186.179688 73.417969 190.628906 75.933594 194.167969 C 77.867188 196.890625 81.144531 198.382812 84.375 199.21875 C 87.605469 200.054688 90.96875 200.183594 94.300781 200.308594 C 98.867188 200.484375 103.4375 200.65625 108.003906 200.832031 C 108.976562 200.867188 109.992188 200.894531 110.871094 200.472656 C 111.746094 200.050781 112.414062 199.019531 112.089844 198.101562 Z M 112.089844 198.101562 " fill-opacity="1" fill-rule="nonzero"/></g></g></g></g><path fill="#000000" d="M 187.5 375 C 84.144531 375 0 290.855469 0 187.5 C 0 84.144531 84.144531 0 187.5 0 C 290.855469 0 375 84.144531 375 187.5 C 375 290.855469 290.855469 375 187.5 375 Z M 187.5 2.769531 C 85.621094 2.769531 2.769531 85.621094 2.769531 187.5 C 2.769531 289.378906 85.621094 372.230469 187.5 372.230469 C 289.378906 372.230469 372.230469 289.378906 372.230469 187.5 C 372.230469 85.621094 289.378906 2.769531 187.5 2.769531 Z M 187.5 2.769531 " fill-opacity="1" fill-rule="nonzero"/><g fill="#000000" fill-opacity="1"><g transform="translate(125.479537, 194.495846)"><g><path d="M 27.125 -23.546875 C 27.125 -20.472656 26.253906 -18.023438 24.515625 -16.203125 C 22.773438 -14.390625 20.226562 -13.3125 16.875 -12.96875 L 26.609375 0 L 22.28125 0 L 10.578125 -15.75 C 13.835938 -15.75 16.414062 -15.972656 18.3125 -16.421875 C 20.207031 -16.878906 21.5625 -17.6875 22.375 -18.84375 C 23.1875 -20.007812 23.59375 -21.625 23.59375 -23.6875 C 23.59375 -26.570312 22.660156 -28.609375 20.796875 -29.796875 C 18.929688 -30.984375 15.976562 -31.578125 11.9375 -31.578125 L 7.046875 -31.578125 L 7.046875 0 L 3.578125 0 L 3.578125 -34.734375 L 12.171875 -34.734375 C 15.804688 -34.734375 18.71875 -34.300781 20.90625 -33.4375 C 23.101562 -32.570312 24.6875 -31.3125 25.65625 -29.65625 C 26.632812 -28 27.125 -25.960938 27.125 -23.546875 Z M 27.125 -23.546875 "/></g></g></g><g fill="#000000" fill-opacity="1"><g transform="translate(154.003751, 194.495846)"><g><path d="M 27.734375 -34.734375 L 15.609375 -11.609375 L 15.609375 0 L 12.125 0 L 12.125 -11.609375 L 0.09375 -34.734375 L 3.953125 -34.734375 L 13.8125 -15.28125 L 23.921875 -34.734375 Z M 27.734375 -34.734375 "/></g></g></g><g fill="#000000" fill-opacity="1"><g transform="translate(181.823089, 194.495846)"><g><path d="M 25.5625 -9.96875 C 25.5625 -6.550781 24.535156 -4.035156 22.484375 -2.421875 C 20.429688 -0.804688 16.992188 0 12.171875 0 L 3.578125 0 L 3.578125 -34.734375 L 11.703125 -34.734375 C 15.929688 -34.734375 18.96875 -33.972656 20.8125 -32.453125 C 22.664062 -30.929688 23.59375 -28.679688 23.59375 -25.703125 C 23.59375 -23.984375 23.285156 -22.539062 22.671875 -21.375 C 22.066406 -20.21875 21.085938 -19.265625 19.734375 -18.515625 C 21.773438 -17.703125 23.253906 -16.601562 24.171875 -15.21875 C 25.097656 -13.84375 25.5625 -12.09375 25.5625 -9.96875 Z M 22.046875 -9.78125 C 22.046875 -11.40625 21.769531 -12.679688 21.21875 -13.609375 C 20.664062 -14.535156 19.894531 -15.21875 18.90625 -15.65625 C 17.925781 -16.09375 16.773438 -16.363281 15.453125 -16.46875 C 14.140625 -16.582031 12.71875 -16.640625 11.1875 -16.640625 L 7.046875 -16.640625 L 7.046875 -3.15625 L 11.796875 -3.15625 C 15.335938 -3.15625 17.929688 -3.628906 19.578125 -4.578125 C 21.222656 -5.535156 22.046875 -7.269531 22.046875 -9.78125 Z M 20.0625 -25.65625 C 20.0625 -27.070312 19.8125 -28.207031 19.3125 -29.0625 C 18.8125 -29.925781 17.925781 -30.5625 16.65625 -30.96875 C 15.394531 -31.375 13.585938 -31.578125 11.234375 -31.578125 L 7.046875 -31.578125 L 7.046875 -19.78125 L 11.28125 -19.78125 C 14.539062 -19.78125 16.816406 -20.210938 18.109375 -21.078125 C 19.410156 -21.941406 20.0625 -23.46875 20.0625 -25.65625 Z M 20.0625 -25.65625 "/></g></g></g><g fill="#000000" fill-opacity="1"><g transform="translate(208.796571, 194.495846)"><g><path d="M 27.5 0 L 23.125 0 L 11.5625 -15.046875 L 7.046875 -9.5 L 7.046875 0 L 3.578125 0 L 3.578125 -34.734375 L 7.046875 -34.734375 L 7.046875 -14.765625 L 23.125 -34.734375 L 27.5 -34.734375 L 13.765625 -17.8125 Z M 27.5 0 "/></g></g></g><g fill="#000000" fill-opacity="1"><g transform="translate(236.568919, 194.495846)"><g><path d="M 34.265625 0 L 30.453125 0 L 25.421875 -11.703125 L 9.265625 -11.703125 L 4.1875 0 L 0.515625 0 L 15.421875 -34.734375 L 19.3125 -34.734375 Z M 24.0625 -14.859375 L 17.390625 -30.78125 L 10.578125 -14.859375 Z M 24.0625 -14.859375 "/></g></g></g><g fill="#000000" fill-opacity="1"><g transform="translate(141.141982, 224.225054)"><g><path d="M 9.03125 -3.921875 C 9.03125 -3.085938 8.847656 -2.347656 8.484375 -1.703125 C 8.128906 -1.066406 7.640625 -0.566406 7.015625 -0.203125 C 6.390625 0.148438 5.664062 0.328125 4.84375 0.328125 C 3.53125 0.328125 2.46875 -0.0664062 1.65625 -0.859375 C 0.851562 -1.648438 0.453125 -2.707031 0.453125 -4.03125 L 2.28125 -4.03125 C 2.28125 -3.195312 2.515625 -2.546875 2.984375 -2.078125 C 3.460938 -1.609375 4.082031 -1.375 4.84375 -1.375 C 5.507812 -1.375 6.0625 -1.597656 6.5 -2.046875 C 6.9375 -2.492188 7.15625 -3.0625 7.15625 -3.75 C 7.15625 -4.21875 7.070312 -4.59375 6.90625 -4.875 C 6.738281 -5.15625 6.460938 -5.40625 6.078125 -5.625 C 5.691406 -5.851562 5.164062 -6.101562 4.5 -6.375 C 3.863281 -6.644531 3.398438 -6.84375 3.109375 -6.96875 C 2.816406 -7.09375 2.597656 -7.203125 2.453125 -7.296875 C 2.316406 -7.398438 2.15625 -7.535156 1.96875 -7.703125 C 1.289062 -8.335938 0.953125 -9.15625 0.953125 -10.15625 C 0.953125 -10.90625 1.117188 -11.566406 1.453125 -12.140625 C 1.785156 -12.710938 2.242188 -13.164062 2.828125 -13.5 C 3.421875 -13.832031 4.085938 -14 4.828125 -14 C 5.554688 -14 6.210938 -13.84375 6.796875 -13.53125 C 7.378906 -13.226562 7.835938 -12.796875 8.171875 -12.234375 C 8.503906 -11.679688 8.671875 -11.035156 8.671875 -10.296875 L 6.796875 -10.296875 C 6.796875 -10.953125 6.613281 -11.445312 6.25 -11.78125 C 5.882812 -12.125 5.398438 -12.296875 4.796875 -12.296875 C 4.242188 -12.296875 3.773438 -12.101562 3.390625 -11.71875 C 3.015625 -11.34375 2.828125 -10.878906 2.828125 -10.328125 C 2.828125 -9.546875 3.242188 -8.945312 4.078125 -8.53125 C 4.210938 -8.457031 4.34375 -8.390625 4.46875 -8.328125 C 4.601562 -8.273438 4.828125 -8.179688 5.140625 -8.046875 C 5.460938 -7.910156 5.96875 -7.703125 6.65625 -7.421875 C 8.238281 -6.753906 9.03125 -5.585938 9.03125 -3.921875 Z M 9.03125 -3.921875 "/></g></g></g><g fill="#000000" fill-opacity="1"><g transform="translate(160.415351, 224.225054)"><g><path d="M 16 -6.796875 C 16 -5.460938 15.675781 -4.257812 15.03125 -3.1875 C 14.394531 -2.113281 13.53125 -1.257812 12.4375 -0.625 C 11.34375 0.0078125 10.113281 0.328125 8.75 0.328125 C 6.414062 0.328125 4.640625 -0.5625 3.421875 -2.34375 L 3.421875 4.796875 L 1.578125 4.796875 L 1.578125 -13.671875 L 3.421875 -13.671875 L 3.421875 -11.328125 C 4.003906 -12.191406 4.753906 -12.851562 5.671875 -13.3125 C 6.585938 -13.769531 7.628906 -14 8.796875 -14 C 10.160156 -14 11.382812 -13.679688 12.46875 -13.046875 C 13.550781 -12.410156 14.410156 -11.550781 15.046875 -10.46875 C 15.679688 -9.382812 16 -8.160156 16 -6.796875 Z M 14.125 -6.796875 C 14.125 -7.847656 13.882812 -8.789062 13.40625 -9.625 C 12.9375 -10.457031 12.296875 -11.109375 11.484375 -11.578125 C 10.679688 -12.054688 9.757812 -12.296875 8.71875 -12.296875 C 7.71875 -12.296875 6.804688 -12.050781 5.984375 -11.5625 C 5.160156 -11.082031 4.503906 -10.4375 4.015625 -9.625 C 3.535156 -8.820312 3.296875 -7.914062 3.296875 -6.90625 C 3.296875 -5.851562 3.53125 -4.910156 4 -4.078125 C 4.476562 -3.242188 5.128906 -2.582031 5.953125 -2.09375 C 6.785156 -1.613281 7.71875 -1.375 8.75 -1.375 C 9.769531 -1.375 10.679688 -1.609375 11.484375 -2.078125 C 12.296875 -2.554688 12.9375 -3.207031 13.40625 -4.03125 C 13.882812 -4.863281 14.125 -5.785156 14.125 -6.796875 Z M 14.125 -6.796875 "/></g></g></g><g fill="#000000" fill-opacity="1"><g transform="translate(187.037557, 224.225054)"><g><path d="M 15.5 0 L 13.65625 0 L 13.65625 -2.40625 C 12.9375 -1.4375 12.164062 -0.738281 11.34375 -0.3125 C 10.53125 0.113281 9.539062 0.328125 8.375 0.328125 C 6.976562 0.328125 5.722656 0.015625 4.609375 -0.609375 C 3.503906 -1.234375 2.632812 -2.082031 2 -3.15625 C 1.363281 -4.238281 1.046875 -5.453125 1.046875 -6.796875 C 1.046875 -8.160156 1.363281 -9.382812 2 -10.46875 C 2.632812 -11.550781 3.492188 -12.410156 4.578125 -13.046875 C 5.660156 -13.679688 6.882812 -14 8.25 -14 C 9.4375 -14 10.46875 -13.773438 11.34375 -13.328125 C 12.21875 -12.890625 12.988281 -12.195312 13.65625 -11.25 L 13.65625 -13.671875 L 15.5 -13.671875 Z M 13.65625 -6.90625 C 13.65625 -7.914062 13.414062 -8.828125 12.9375 -9.640625 C 12.457031 -10.460938 11.8125 -11.109375 11 -11.578125 C 10.195312 -12.054688 9.296875 -12.296875 8.296875 -12.296875 C 7.316406 -12.296875 6.414062 -12.050781 5.59375 -11.5625 C 4.78125 -11.082031 4.128906 -10.4375 3.640625 -9.625 C 3.160156 -8.820312 2.921875 -7.921875 2.921875 -6.921875 C 2.921875 -5.890625 3.160156 -4.953125 3.640625 -4.109375 C 4.128906 -3.265625 4.785156 -2.597656 5.609375 -2.109375 C 6.429688 -1.617188 7.363281 -1.375 8.40625 -1.375 C 9.382812 -1.375 10.269531 -1.617188 11.0625 -2.109375 C 11.851562 -2.597656 12.484375 -3.257812 12.953125 -4.09375 C 13.421875 -4.925781 13.65625 -5.863281 13.65625 -6.90625 Z M 13.65625 -6.90625 "/></g></g></g><g fill="#000000" fill-opacity="1"><g transform="translate(213.684757, 224.225054)"><g><path d="M 15.203125 -4.03125 C 14.378906 -2.457031 13.410156 -1.335938 12.296875 -0.671875 C 11.179688 -0.00390625 9.914062 0.328125 8.5 0.328125 C 7.101562 0.328125 5.84375 0.0078125 4.71875 -0.625 C 3.59375 -1.257812 2.695312 -2.117188 2.03125 -3.203125 C 1.375 -4.296875 1.046875 -5.519531 1.046875 -6.875 C 1.046875 -7.875 1.234375 -8.800781 1.609375 -9.65625 C 1.984375 -10.519531 2.503906 -11.273438 3.171875 -11.921875 C 3.835938 -12.578125 4.613281 -13.085938 5.5 -13.453125 C 6.394531 -13.816406 7.351562 -14 8.375 -14 C 9.90625 -14 11.28125 -13.597656 12.5 -12.796875 C 13.726562 -11.992188 14.617188 -10.90625 15.171875 -9.53125 L 13.09375 -9.53125 C 12.007812 -11.375 10.425781 -12.296875 8.34375 -12.296875 C 7.332031 -12.296875 6.414062 -12.050781 5.59375 -11.5625 C 4.78125 -11.082031 4.128906 -10.429688 3.640625 -9.609375 C 3.160156 -8.785156 2.921875 -7.859375 2.921875 -6.828125 C 2.921875 -5.828125 3.164062 -4.910156 3.65625 -4.078125 C 4.15625 -3.253906 4.820312 -2.597656 5.65625 -2.109375 C 6.488281 -1.617188 7.410156 -1.375 8.421875 -1.375 C 9.390625 -1.375 10.234375 -1.578125 10.953125 -1.984375 C 11.671875 -2.390625 12.382812 -3.070312 13.09375 -4.03125 Z M 15.203125 -4.03125 "/></g></g></g><g fill="#000000" fill-opacity="1"><g transform="translate(239.432096, 224.225054)"><g><path d="M 15.28125 -6.21875 L 2.90625 -6.21875 C 2.945312 -5.320312 3.210938 -4.503906 3.703125 -3.765625 C 4.203125 -3.035156 4.847656 -2.453125 5.640625 -2.015625 C 6.429688 -1.585938 7.289062 -1.375 8.21875 -1.375 C 9.257812 -1.375 10.21875 -1.660156 11.09375 -2.234375 C 11.976562 -2.804688 12.613281 -3.5625 13 -4.5 L 14.921875 -4.5 C 14.640625 -3.632812 14.171875 -2.832031 13.515625 -2.09375 C 12.859375 -1.363281 12.078125 -0.773438 11.171875 -0.328125 C 10.273438 0.109375 9.3125 0.328125 8.28125 0.328125 C 7.257812 0.328125 6.3125 0.144531 5.4375 -0.21875 C 4.5625 -0.59375 3.796875 -1.109375 3.140625 -1.765625 C 2.484375 -2.421875 1.96875 -3.1875 1.59375 -4.0625 C 1.226562 -4.9375 1.046875 -5.882812 1.046875 -6.90625 C 1.046875 -7.90625 1.226562 -8.832031 1.59375 -9.6875 C 1.96875 -10.539062 2.472656 -11.289062 3.109375 -11.9375 C 3.753906 -12.582031 4.503906 -13.085938 5.359375 -13.453125 C 6.222656 -13.816406 7.15625 -14 8.15625 -14 C 9.5 -14 10.707031 -13.6875 11.78125 -13.0625 C 12.863281 -12.4375 13.71875 -11.546875 14.34375 -10.390625 C 14.96875 -9.234375 15.28125 -7.84375 15.28125 -6.21875 Z M 13.421875 -7.90625 C 13.109375 -9.269531 12.476562 -10.34375 11.53125 -11.125 C 10.59375 -11.90625 9.457031 -12.296875 8.125 -12.296875 C 7.257812 -12.296875 6.460938 -12.113281 5.734375 -11.75 C 5.015625 -11.382812 4.410156 -10.867188 3.921875 -10.203125 C 3.441406 -9.546875 3.117188 -8.78125 2.953125 -7.90625 Z M 13.421875 -7.90625 "/></g></g></g></svg>