<svg width="20" height="20" fill="#000" viewBox="0 0 1024 1024" xmlns="http://www.w3.org/2000/svg">
    <path d="M454.432 0.016h-331.904c-18.336 0-33.184 14.32-33.184 32v959.936c0 17.664 14.864 32 33.184 32h331.904c18.336 0 33.184-14.336 33.184-32v-959.936c0-17.664-14.848-32-33.184-32zM421.248 959.968h-265.536v-96h165.952v-64h-165.952v-95.984h99.568v-64h-99.568v-95.984h165.952v-64h-165.952v-96h99.568v-64h-99.568v-96h165.952v-64h-165.952v-95.984h265.52v895.952zM895.856 809.568l-109.52 105.264v-805.696l109.2 105.28 46.8-45.12-165.952-159.984c-12.944-12.4-33.856-12.4-46.8 0l-165.952 159.984 46.8 45.12 109.536-105.28v805.712l-109.2-105.264-46.8 45.104 165.952 159.984c12.944 12.416 33.856 12.416 46.8 0l165.952-159.984-46.816-45.12z" stroke="#000" stroke-width="1"/>
</svg>
